<svg id="レイヤー_1" data-name="レイヤー 1" xmlns="http://www.w3.org/2000/svg" width="32" height="32" viewBox="0 0 32 32">
  <title>ic_sns_line</title>
  <circle cx="16" cy="16" r="16" fill="none"/>
  <path d="M24.67,14.78c0-3.88-3.89-7-8.67-7s-8.67,3.16-8.67,7c0,3.47,3.09,6.38,7.25,6.93.28.07.67.19.76.43a1.75,1.75,0,0,1,0,.79l-.12.74c0,.22-.17.85.75.46a27.72,27.72,0,0,0,6.81-5h0A6.26,6.26,0,0,0,24.67,14.78ZM12.94,16.85a.16.16,0,0,1-.17.16H10.34a.15.15,0,0,1-.11,0h0a.15.15,0,0,1,0-.11h0V13.07a.17.17,0,0,1,.17-.17H11a.17.17,0,0,1,.17.17v3h1.65a.16.16,0,0,1,.17.17Zm1.47,0a.17.17,0,0,1-.17.16h-.61a.17.17,0,0,1-.17-.16V13.07a.18.18,0,0,1,.17-.17h.61a.18.18,0,0,1,.17.17Zm4.18,0a.16.16,0,0,1-.17.16h-.7l0,0L15.94,14.6v2.25a.16.16,0,0,1-.16.16h-.61a.16.16,0,0,1-.17-.16V13.07a.17.17,0,0,1,.17-.17h.73l0,0,1.73,2.33V13.07a.17.17,0,0,1,.17-.17h.6a.17.17,0,0,1,.17.17ZM22,13.68a.18.18,0,0,1-.17.17H20.13v.64h1.65a.17.17,0,0,1,.17.16v.61a.17.17,0,0,1-.17.17H20.13v.64h1.65a.17.17,0,0,1,.17.17v.61a.17.17,0,0,1-.17.16H19.35a.15.15,0,0,1-.11,0h0a.16.16,0,0,1-.05-.11h0V13.07h0a.17.17,0,0,1,.05-.12h0a.21.21,0,0,1,.12,0h2.43a.18.18,0,0,1,.17.17Z" fill="#fff"/>
</svg>
